<?xml version="1.0" encoding="UTF-8" standalone="no"?>
<!DOCTYPE svg PUBLIC "-//W3C//DTD SVG 1.1//EN" "http://www.w3.org/Graphics/SVG/1.1/DTD/svg11.dtd">
<svg width="100%" height="100%" viewBox="0 0 1024 1024" version="1.1" xmlns="http://www.w3.org/2000/svg" xmlns:xlink="http://www.w3.org/1999/xlink" xml:space="preserve" xmlns:serif="http://www.serif.com/" style="fill-rule:evenodd;clip-rule:evenodd;stroke-linejoin:round;stroke-miterlimit:2;">
    <g id="Background" transform="matrix(1.619611,0,0,1.619611,-106.386347,-288.897489)">
        <path d="M673.508,545.509C673.425,545.849 673.129,546.113 673.046,546.453C672.92,546.97 673.053,564.312 673.047,564.498C672.953,567.58 672.387,568.763 675.471,568.939C682.71,569.352 684.277,570.857 688.499,573.502C692.282,575.871 695.42,580.873 696.536,583.483C698.294,587.594 698.034,588.116 698.327,589.541C699.136,593.466 698.922,593.485 699.039,597.494C697.238,598.426 697.218,598.375 697.095,598.5C696.814,598.785 696.936,598.838 696.888,603.5L696.882,604.5L696.886,605.5L696.839,606.5L696.783,607.5L696.723,608.5L696.671,609.5L696.653,610.5L696.387,611.5C695.8,614.491 695.837,614.486 695.863,617.523C695.898,621.515 695.951,621.497 695.707,625.5L695.623,626.5L695.433,627.5L695.781,628.5C696.209,629.165 696.637,629.83 697.065,630.495C696.867,634.482 696.989,634.469 696.61,637.512C695.738,644.5 696.431,644.535 695.684,651.519C694.312,664.343 695.534,664.416 694.614,671.513C693.582,679.473 694.386,679.519 693.57,687.506C692.731,695.719 693.259,700.406 692.694,705.522C691.641,715.053 692.495,715.09 691.776,722.531C691.103,729.502 691.178,729.487 691.048,736.492C690.832,748.187 687.707,752.593 683.349,757.366C679.373,761.719 678.245,762.031 676.407,763.366C673.317,765.611 667.515,767.861 663.521,767.953C659.92,768.037 658.573,768.068 618.501,768.043C425.667,767.922 425.629,768.263 423.442,767.761C416.359,766.137 413.439,763.702 412.3,762.749C401.786,753.945 403.193,746.421 402.694,744.453C402.399,743.292 401.949,742.962 397.502,742.97C371.501,742.999 345.5,743.029 319.499,743.058C303.1,743.047 121.391,742.927 114.502,743.057C107.771,743.185 101.256,740.288 98.301,737.74C97.955,737.442 95.573,735.388 94.357,733.6C91.808,729.85 91.694,729.876 90.422,725.524C89.842,723.542 89.956,723.492 89.931,667.5C89.929,663.66 89.911,620.25 89.928,619.499C90.175,608.911 89.661,555.671 90.049,546.46C90.314,546.225 90.236,545.735 90.5,545.5C90.881,545.162 92.351,545.203 92.514,545.207C96.87,545.327 96.846,545.437 154.5,545.441C175.86,545.443 418.126,545.46 421.499,545.398C424.586,545.341 424.42,544.486 426.227,542.287C429.757,537.991 435.596,532.006 445.511,530.904C448.092,530.617 507.139,530.794 512.498,530.81C518.233,530.827 523.387,530.424 528.391,532.734C538.56,537.427 539.824,544.742 542.538,545.346C543.149,545.482 665.221,545.611 670.476,545.288C671.852,545.204 671.825,545.402 672.504,545.493C672.836,545.537 673.176,545.464 673.508,545.509Z" style="fill:rgb(63,38,25);fill-opacity:1;"/>
        <path d="M319.194,213.29C316.39,221.049 316.594,222.873 307.195,257.427C306.782,259.049 302.696,275.072 301.942,277.679C301.375,277.39 301.07,276.714 300.504,276.425C300.486,276.416 291.543,276.449 291.508,276.44C290.982,276.299 290.668,275.685 290.142,275.544C291.399,271.107 299.388,240.326 301.214,232.428C302.122,228.503 303.53,226.579 299.5,226.428C298.37,226.385 257.886,226.359 255.5,226.361C202.971,226.407 144.941,226.339 143.498,226.362C136.447,226.475 136.058,228.454 128.575,237.56C126.624,239.935 109.686,260.547 104.129,267.197C99.15,273.156 99.098,273.1 98.686,273.633C97.723,274.88 97.951,274.992 97.674,275.738C97.611,275.908 97.43,276.019 97.366,276.189C96.734,276.622 96.693,276.543 96.124,277.039C90.412,282.017 91.678,286.443 91.523,292.499C91.709,316.765 91.502,343.104 91.586,355.5C91.647,364.464 90.899,371.994 98.497,372.553C100.246,372.682 173.94,372.607 180.501,372.601C246.634,372.534 285.741,372.672 286.496,372.482C288.129,372.072 287.727,370.035 287.677,362.5C287.44,326.557 287.814,326.581 287.714,290.654L287.778,289.561C288.098,289.771 288.168,289.496 288.5,289.713C289.606,290.437 289.402,290.661 289.509,290.695C289.965,290.842 289.979,290.655 295.493,290.659C299.148,290.662 299.156,290.541 299.459,290.633C299.459,290.633 300.888,291.489 301.012,291.563C300.939,293.503 300.973,293.493 301.006,330.502C301.026,351.547 300.674,372.656 301.424,373.579C301.894,374.157 302.06,374.218 302.588,373.688C304.011,372.261 304.004,372.258 304.129,372.135C307.977,368.377 311.446,366.465 317.508,365.553C321.038,365.022 321.063,365.281 431.5,365.239C443.378,365.235 450.775,364.411 458.233,370.822C461.229,373.398 460.648,373.873 460.905,374.092C461.011,374.182 462.063,374.293 462.122,374.235C462.336,374.022 462.312,371.709 462.31,371.489C462.306,371.08 462.305,352.18 462.305,350.5C462.304,285.576 462.743,285.48 461.009,277.673C446.822,224.123 446.944,224.092 445.589,219.47C444.74,216.577 444.172,214.833 444.422,214.462C444.643,214.136 445.253,214.25 445.474,213.923C446.992,213.954 446.977,213.962 448.501,213.963C504.167,213.963 559.833,213.963 615.5,213.963C624.029,213.959 629.268,213.196 638.196,218.946C640.575,220.478 647.698,228.192 648.558,229.454C649.792,231.266 651.432,232.829 652.258,233.721C654.685,236.343 654.755,236.881 656.329,238.646C657.275,239.706 657.281,239.684 658.247,240.732C660.199,242.852 659.919,243.059 661.82,245.218C662.212,245.663 664.646,248.096 665.534,249.475C666.594,251.122 667.859,252.226 668.295,252.69C669.758,254.246 671.954,257.156 672.352,257.622C677.882,264.08 677.81,264.12 678.302,264.67C680.925,267.597 680.647,267.803 683.282,270.693C685.717,273.364 685.934,274.144 687.293,275.678C691.44,280.357 692.894,286.36 693.069,288.53C693.499,293.873 693.336,318.861 693.319,321.498C692.991,371.613 694.188,371.864 691.707,378.588C688.909,386.175 681.714,390.029 675.447,391.048C673.494,391.366 672.989,391.515 672.983,394.507C672.962,406.197 672.976,406.473 673.031,407.512C673.142,409.634 673.52,409.557 673.655,410.12C671.687,410.069 657.13,410.069 653.611,410.16C653.637,409.932 653.782,409.728 653.808,409.5C653.831,409.298 653.851,407.759 653.853,407.608C653.88,405.569 653.865,405.587 653.908,403.539C654.009,398.79 653.532,398.843 653.471,398.557C652.932,398.491 652.965,398.326 651.496,398.317C638.137,398.24 638.155,398.475 484.5,398.337C466.751,398.321 465.644,397.946 465.226,399.424C465.087,399.914 465.272,407.966 465.232,408.47C465.151,409.473 464.978,409.416 464.99,409.5C465.08,410.099 465.45,409.929 465.54,410.527C465.507,410.857 465.265,411.143 465.232,411.473C464.838,415.453 466.496,418.342 462.518,425.511C460.798,428.61 459.18,427.956 459.235,431.509C459.715,462.292 458.766,469.248 459.773,470.245C460.118,470.586 460.178,470.647 471.499,470.684C527.834,470.866 610.421,470.722 622.501,470.701C626.591,470.694 673.205,470.612 673.622,470.616C673.523,470.925 673.207,471.133 673.108,471.442C673,471.781 673.013,483.092 673.024,483.523C672.518,483.979 672.832,484.894 670.483,484.868C668.987,484.851 668.998,484.801 665.497,484.768C660.494,484.723 660.51,484.746 655.499,484.696C647,485.005 472.901,484.633 464.581,484.894C463.996,484.845 458.272,484.366 457.247,485.189C456.363,485.899 454.851,488.723 453.13,490.07C443.966,497.243 441.938,495.681 413.507,495.846C413.362,495.847 330.874,495.857 330.498,495.855C324.364,495.823 315.752,496.037 309.28,488.686C307.08,486.189 307.497,484.702 304.504,484.709C301.388,484.717 297.072,484.882 296.426,484.907C291.36,484.695 113.952,484.893 106.493,484.779C105.291,484.779 91.85,484.782 91.459,484.698C90.948,484.589 90.729,484.41 90.676,484.367C90.238,484.01 90.433,483.863 89.996,483.506C89.999,483.357 90.115,474.6 89.975,472.472C89.881,471.039 89.5,471.181 89.324,470.704C91.303,470.666 253.516,470.707 287.501,470.672C303.613,470.656 303.714,470.61 304.125,470.182C304.708,469.577 304.425,469.417 304.465,446.5C304.491,431.023 304.64,429.553 304.16,428.723C304.057,428.545 303.849,428.443 303.745,428.264C298.887,423.576 298.2,420.342 298.108,412.476C298.091,411.042 297.769,411.13 297.589,410.414C297.702,410.023 298.286,409.891 298.399,409.5C298.495,409.166 298.172,408.837 298.143,408.491C298.123,408.254 298.178,408.257 298.136,405.519C298.078,401.729 298.317,399.087 297.478,398.547C297.188,398.361 294.746,398.35 294.508,398.348C287.993,398.318 288.011,398.357 281.501,398.347C263.448,398.319 110.576,398.341 110.499,398.344C109.16,398.384 108.982,398.733 108.707,398.804C107.971,398.702 107.254,398.482 106.518,398.38C106.04,398.314 95.436,398.367 94.472,398.371C91.947,398.384 91.979,398.833 91.5,399.027C91.017,399.223 90.384,399.141 90.014,399.508C90.014,399.508 89.945,401.337 89.939,401.497C89.969,394.089 89.979,394.109 89.957,393.467C89.884,391.405 89.442,391.392 87.416,390.947C85.861,390.605 80.748,389.075 77.311,385.691C69.686,378.186 71.01,368.8 71.016,365.499C71.058,343.484 70.945,343.507 70.96,321.5C70.966,311.663 70.977,290.982 71.043,288.477C71.159,284.111 74,279.02 76.263,276.307C78.413,273.728 78.657,272.959 79.758,271.728C83.061,268.036 82.856,267.873 86.242,264.261C88.467,261.888 89.932,259.833 90.328,259.36C93.089,256.057 93.326,256.278 95.94,252.868C98.197,249.925 98.71,250.356 101.93,245.822C102.765,244.647 106.019,241.53 107.443,239.454C108.124,238.46 110.92,235.566 111.235,235.24C113.815,232.569 114.001,231.768 116.248,229.28C120.17,224.935 126.111,215.371 139.467,214.095C142.274,213.827 301.382,214.028 301.5,214.029C317.047,214.062 317.25,214.131 318.578,213.632C318.798,213.549 318.974,213.372 319.194,213.29Z" style="fill:rgb(57,38,27);fill-opacity:1;"/>
        <path d="M108.476,666.5C108.495,632.833 108.514,599.167 108.533,565.5C108.553,558.014 108.173,556.852 109.531,556.619C110.324,556.483 298.102,556.606 314.5,556.617C417.783,556.685 417.854,556.549 418.331,556.85C419.095,557.332 418.56,561.132 418.508,561.501C416.687,574.437 418.024,576.182 416.582,577.593C415.931,578.23 411.046,579.238 406.32,583.294C395.42,592.646 396.198,605.616 396.164,607.496C396.06,613.129 396.964,641.978 397.02,642.513C397.828,650.151 401.731,720.222 401.622,724.494C401.565,726.724 400.737,726.399 398.5,726.395C309.5,726.367 220.5,726.338 131.5,726.31C114.65,726.313 113.254,726.897 110.197,722.699C107.848,719.472 108.632,719.034 108.476,666.5Z" style="fill:rgb(133,86,56);fill-opacity:1;"/>
        <path d="M516.389,601.491C515.889,617.95 515.892,617.94 515.853,622.503C515.568,656.172 514.705,656.138 514.769,673.499C514.79,679.109 516.518,678.768 516.728,681.482C516.899,683.708 514.051,702.385 513.737,705.531C513.474,708.177 512.341,714.371 511.669,720.524C511.483,722.227 508.596,731.379 517.35,737.724C521.697,740.875 525.757,740.442 532.5,740.511C562.206,740.814 563.026,740.436 565.42,739.333C575.959,734.478 573.649,725.226 573.39,723.52C572.412,717.082 572.359,717.099 572.275,716.539C572.033,714.939 569.383,697.41 569.273,696.533C567.941,685.887 566.225,681.77 567.856,678.688C569.354,675.856 568.414,675.639 568.206,651.501C567.995,627.008 567.352,627.032 567.165,602.549C568.342,602.664 568.319,602.735 569.486,602.775C575.01,602.964 574.989,603.049 580.506,603.119C591.684,603.263 601.295,603.781 609.497,603.879C609.926,603.884 649.975,604.827 653.544,605.106C662.837,605.833 661.73,613.159 665.651,616.32C665.879,616.504 666.187,616.578 666.396,616.782C666.529,616.911 666.512,617.147 666.64,617.281C666.748,617.392 666.752,617.371 668.148,618.496C668,625.296 667.159,663.764 666.758,703.505C666.465,732.534 666.548,733.058 666.949,735.593C666.558,742.887 666.567,742.885 665.98,745.659C664.607,743.676 664.682,743.624 664.5,743.522C664.207,743.358 663.83,743.586 663.494,743.604C661.107,743.733 598.079,743.609 595.501,743.622C570.066,743.755 539.336,743.103 522.5,743.493C508.936,743.807 486.19,743.483 426.501,743.677C420.962,743.695 420.936,743.315 420.502,743.522C420.502,743.522 418.753,745.317 418.6,745.473C417.571,738.996 418.288,735.724 417.628,727.488C416.647,715.243 417.359,715.224 416.721,707.474C415.916,697.697 416.104,692.231 415.66,685.487C414.741,671.5 415.451,671.479 414.344,657.511C414.112,651.451 413.987,640.485 413.653,635.488C412.883,623.994 413.214,624.001 412.647,612.486C412.654,612.478 413.819,611.897 414.237,610.467C414.717,608.827 414.122,608.535 415.365,607.361C417.897,604.972 418.98,603.12 421.201,601.138C424.687,598.029 426.079,597.781 442.51,598.093C461.41,598.453 505.062,600.241 510.5,600.464C513.534,600.588 513.582,600.384 516.389,601.491Z" style="fill:rgb(254,200,67);fill-opacity:1;"/>
        <path d="M89.996,483.506C90.433,483.863 90.238,484.01 90.676,484.367C90.729,484.41 90.948,484.589 91.459,484.698C91.85,484.782 105.291,484.779 106.493,484.779C107.089,485.208 106.912,485.381 107.5,485.804C108.75,486.705 108.885,486.465 108.972,486.564C109.187,486.81 109.01,487.215 109.021,487.541C109.124,490.547 109.046,490.532 109.114,493.531C109.414,493.696 109.061,494.364 109.361,494.529C109.714,494.723 110.148,494.336 110.55,494.32C111.026,494.301 111.021,494.425 116.502,494.395C132.953,494.303 240.701,494.41 251.501,494.42C273.002,494.442 272.988,494.412 294.488,494.359C296.021,494.356 296.007,494.41 297.506,494.46C297.83,494.792 298.25,495.02 298.574,495.352C300.037,496.848 299.609,497.103 299.734,497.227C299.928,497.418 300.319,497.294 300.505,497.492C300.679,497.675 300.477,498.078 300.679,498.228C300.945,498.425 301.424,498.123 301.664,498.351C301.895,498.57 301.64,499.022 301.804,499.294C302.051,499.703 302.434,500.031 302.835,500.292C303.042,500.426 303.383,500.266 303.561,500.437C303.766,500.635 303.664,501.017 303.829,501.25C303.879,501.321 305.348,502.426 305.482,502.527C307.192,503.813 311.497,505.427 311.523,505.436C311.827,505.535 312.167,505.478 312.47,505.579C313.537,505.935 313.433,506.149 314.519,506.446C315.836,506.806 316.384,506.425 316.502,506.454C316.922,506.559 317.19,506.993 317.585,507.17C320.075,508.28 344.486,507.326 350.5,507.611C351.12,507.64 416.756,507.642 417.51,507.625C421.508,507.533 421.496,507.663 425.499,507.619C438.789,507.473 438.811,508.068 443.483,507.345C445.173,507.083 445.259,506.383 445.485,506.326C445.839,506.236 446.17,506.616 446.534,506.641C446.656,506.65 448.007,506.346 448.375,506.195C451.025,505.102 451.058,505.193 451.283,505.088C453.053,504.26 454.489,503.566 455.206,503.073C455.368,502.962 455.397,502.708 455.564,502.606C455.814,502.455 456.147,502.491 456.401,502.349C457.598,501.677 462.172,496.949 462.401,496.465C462.539,496.171 462.342,495.78 462.498,495.495C462.729,495.073 463.08,494.69 463.501,494.456C463.603,494.399 479.95,494.441 480.5,494.441C568.829,494.379 568.82,494.493 576.5,494.45C594.448,494.348 646.801,494.664 652.419,494.239C652.849,494 653.28,493.761 653.71,493.523C654.095,493.714 654.413,494.023 654.798,494.214C655.565,494.596 660.411,494.721 661.062,495.733C661.741,496.786 661.508,498.07 661.556,519.5C661.58,530.182 661.221,543.222 661.57,543.472C661.825,543.655 661.862,543.319 665.493,543.331C665.813,543.332 669.306,543.345 669.49,543.385C669.843,543.462 670.143,543.726 670.5,543.779C671.16,543.877 671.847,543.696 672.5,543.831C672.689,543.87 672.659,543.911 674.652,544.921L673.508,545.509C673.176,545.464 672.836,545.537 672.504,545.493C671.825,545.402 671.852,545.204 670.476,545.288C665.221,545.611 543.149,545.482 542.538,545.346C539.824,544.742 538.56,537.427 528.391,532.734C523.387,530.424 518.233,530.827 512.498,530.81C507.139,530.794 448.092,530.617 445.511,530.904C435.596,532.006 429.757,537.991 426.227,542.287C424.42,544.486 424.586,545.341 421.499,545.398C418.126,545.46 175.86,545.443 154.5,545.441C96.846,545.437 96.87,545.327 92.514,545.207C92.351,545.203 90.881,545.162 90.5,545.5C90.236,545.735 90.314,546.225 90.049,546.46C89.78,546.208 89.77,545.751 89.501,545.499C88.221,544.297 84.587,545.124 84.632,539.503C84.757,523.835 84.58,504.285 84.658,497.501C84.761,488.473 83.763,487.135 88.421,485.31C89.828,484.758 89.522,484.425 89.996,483.506Z" style="fill:rgb(238,172,59);fill-opacity:1;"/>
        <path d="M475.746,290.348C475.97,290.385 475.931,290.856 476.155,290.893C476.42,290.936 476.405,290.631 479.498,290.648C510.377,290.814 635.9,290.699 649.5,290.687C658.319,290.679 671.369,290.691 671.47,290.716C672.094,290.872 671.903,291.188 672.5,291.425C672.92,291.592 672.942,291.3 673.373,291.471C673.455,302.326 673.338,362.525 673.301,363.493C673.01,371.008 670.001,372.61 663.499,372.59C652.082,372.555 621.18,372.572 617.5,372.574C536.342,372.616 495.738,372.529 479.502,372.603C477.002,372.615 476.154,372.996 475.88,370.506C475.771,369.519 476.064,303.935 475.746,290.348Z" style="fill:rgb(133,86,56);fill-opacity:1;"/>
        <path d="M287.714,290.654C287.814,326.581 287.44,326.557 287.677,362.5C287.727,370.035 288.129,372.072 286.496,372.482C285.741,372.672 246.634,372.534 180.501,372.601C173.94,372.607 100.246,372.682 98.497,372.553C90.899,371.994 91.647,364.464 91.586,355.5C91.502,343.104 91.709,316.765 91.523,292.499C93.385,290.863 93.333,290.816 93.531,290.735C93.721,290.657 164.861,290.627 192.5,290.672C265.864,290.792 280.097,290.702 287.714,290.654Z" style="fill:rgb(133,86,56);fill-opacity:1;"/>
        <path d="M319.194,213.29C319.302,213.069 320.269,211.093 320.618,210.573C321.005,209.998 322.795,207.336 328.511,206.997C329.098,206.962 382.78,206.975 387.499,206.976C437.367,206.988 437.506,206.793 439.365,207.762C443.202,209.762 443.291,212.394 443.888,213.272C443.888,213.272 445.347,213.871 445.474,213.923C445.253,214.25 444.643,214.136 444.422,214.462C444.172,214.833 444.74,216.577 445.589,219.47C446.944,224.092 446.822,224.123 461.009,277.673C462.743,285.48 462.304,285.576 462.305,350.5C462.305,352.18 462.306,371.08 462.31,371.489C462.312,371.709 462.336,374.022 462.122,374.235C462.063,374.293 461.011,374.182 460.905,374.092C460.648,373.873 461.229,373.398 458.233,370.822C450.775,364.411 443.378,365.235 431.5,365.239C321.063,365.281 321.038,365.022 317.508,365.553C311.446,366.465 307.977,368.377 304.129,372.135C304.004,372.258 304.011,372.261 302.588,373.688C302.06,374.218 301.894,374.157 301.424,373.579C300.674,372.656 301.026,351.547 301.006,330.502C300.973,293.493 300.939,293.503 301.012,291.563L301.035,290.608C301.535,290.615 302.001,290.916 302.5,290.923C302.853,290.929 303.172,290.694 303.522,290.646C304.034,290.575 309.939,290.651 310.497,290.658C313.623,290.699 313.599,290.637 316.495,290.507C316.815,290.529 317.12,290.667 317.44,290.689C317.936,290.722 322.096,290.703 322.501,290.701C322.792,290.699 436.324,290.67 436.499,290.671C443.936,290.734 443.924,290.656 446.49,290.487C446.541,290.037 447.01,290.036 446.311,281.514C446.183,279.952 446.125,279.977 445.799,278.427C445.594,277.454 445.475,277.508 445.235,276.826L444.492,276.515C444.747,274.981 444.979,274.98 444.619,273.477C444.177,271.627 443.977,271.686 438.855,250.404C436.813,241.916 436.79,241.942 434.712,233.444C433.124,226.952 433.251,226.941 431.806,220.425C431.25,217.918 430.433,217.703 426.501,217.704C423.621,217.705 394.899,217.716 390.505,217.785C386.508,217.848 334.047,217.791 333.522,217.843C331.553,218.039 330.962,219.581 329.117,228.407C328.659,230.596 325.83,242.193 323.91,250.595C321.391,261.615 321.031,261.505 318.448,272.489C317.93,274.69 318.143,274.714 318.085,275.095C318.085,275.095 317.57,276.419 317.525,276.535C317.257,276.915 316.988,277.296 316.72,277.677C316.247,277.461 315.986,276.904 315.513,276.687C315.338,276.608 304.603,276.779 304.467,276.662C304.159,276.395 303.961,275.886 304.09,275.5C304.257,275.001 304.931,274.837 305.223,274.4C305.239,274.376 305.643,272.543 305.639,272.514C305.585,272.142 305.055,271.863 305.149,271.5C305.155,271.477 306.117,270.861 306.442,269.487C306.84,267.809 306.241,267.714 306.31,267.453C306.324,267.402 307.141,266.845 307.456,265.489C307.839,263.84 307.17,263.741 307.24,263.5C307.252,263.456 308.197,262.912 308.481,261.498C308.795,259.943 308.178,259.839 308.116,259.5C307.809,258.809 307.502,258.118 307.195,257.427C316.594,222.873 316.39,221.049 319.194,213.29Z" style="fill:rgb(227,157,50);fill-opacity:1;"/>
        <path d="M465.54,410.527C466.232,410.401 466.183,409.884 471.434,410.129C471.58,410.573 471.586,411.056 471.732,411.5C471.858,411.882 472.174,412.195 472.246,412.591C472.374,413.285 472.181,419.001 472.162,419.558C472.191,419.568 473.071,420.354 474.5,420.398C480.961,420.598 532.413,420.454 555.5,420.578C560.619,420.606 560.614,420.544 619.5,420.568C625.81,420.571 654.198,420.488 654.52,420.539C654.932,420.605 654.943,420.808 656.571,420.887C658.966,421.003 658.916,421.656 659.508,421.43C660.083,421.21 660.375,420.495 660.95,420.275C660.15,419.598 660.376,418.844 656.509,418.77C655.053,418.742 655.11,419.072 654.987,419.057C654.74,419.026 654.579,418.771 654.378,418.623C653.818,418.213 653.857,418.16 653.808,417.457C653.44,412.134 654.046,412.177 654.012,411.719C653.972,411.184 653.651,410.695 653.611,410.16C657.13,410.069 671.687,410.069 673.655,410.12C677.097,411.402 678.903,411.855 678.723,418.505C678.389,430.88 678.691,440.495 678.597,450.501C678.535,457.006 678.68,456.992 678.663,463.5C678.649,468.874 676.378,468.874 673.622,470.616C673.205,470.612 626.591,470.694 622.501,470.701C610.421,470.722 527.834,470.866 471.499,470.684C460.178,470.647 460.118,470.586 459.773,470.245C458.766,469.248 459.715,462.292 459.235,431.509C459.18,427.956 460.798,428.61 462.518,425.511C466.496,418.342 464.838,415.453 465.232,411.473C465.265,411.143 465.507,410.857 465.54,410.527Z" style="fill:rgb(236,170,58);fill-opacity:1;"/>
        <path d="M293.675,420.529C294.09,423.694 294.108,423.703 294.232,456.5C294.263,464.802 294.248,464.78 294.252,465.5C294.254,465.742 294.271,468.386 294.42,468.526C294.662,468.754 295.083,468.632 295.413,468.596C295.78,468.555 296.112,468.333 296.479,468.3C296.756,468.275 302.098,468.424 302.289,468.211C302.355,468.138 302.252,468.132 302.212,446.492C302.21,445.372 302.193,436.255 302.24,432.49C302.248,431.844 302.287,431.2 302.277,430.555C302.272,430.164 301.984,429.715 302.195,429.386C302.539,428.849 303.401,428.801 303.745,428.264C303.849,428.443 304.057,428.545 304.16,428.723C304.64,429.553 304.491,431.023 304.465,446.5C304.425,469.417 304.708,469.577 304.125,470.182C303.714,470.61 303.613,470.656 287.501,470.672C253.516,470.707 91.303,470.666 89.324,470.704C90.035,469.965 89.802,469.803 90.5,469.077C90.565,469.01 90.992,468.565 91.487,468.454C92.382,468.255 100.54,468.393 101.327,468.406C102.103,467.884 102.17,468.026 102.952,467.5C103.019,467.455 103.579,467.078 103.696,466.812C104.02,466.074 103.756,430.105 103.857,424.509C103.891,422.664 103.351,422.564 103.288,422.202C103.053,420.848 104.239,421.451 108.479,420.564C109.978,420.25 109.978,420.448 111.5,420.51C116.349,420.708 223.74,420.539 233.5,420.524C238.314,420.516 289.802,420.435 293.675,420.529Z" style="fill:rgb(239,174,60);fill-opacity:1;"/>
        <path d="M472.604,275.509C468.899,263.242 466.111,251.844 462.979,240.377C459.732,228.492 459.788,228.347 460.169,227.351C460.602,226.223 462.149,226.337 468.499,226.34C606.508,226.408 606.501,226.241 618.5,226.362C627.134,226.448 627.395,226.968 630.908,231.145C638.664,240.366 638.597,240.393 646.141,249.779C656.639,262.841 662.548,270.332 663.964,272.128C665.073,273.534 665.737,273.512 666.615,276.203C664.637,276.555 664.635,276.544 658.5,276.515C613.872,276.3 549.02,276.435 539.5,276.455C492.191,276.554 489.111,276.386 476.5,276.509C473.606,276.537 473.622,276.347 473.17,276.307L472.604,275.509Z" style="fill:rgb(132,85,56);fill-opacity:1;"/>
        <path d="M290.142,275.544L289.743,276.35C283.335,276.671 125.563,276.356 105.5,276.483C98.131,276.53 98.149,276.243 97.366,276.189C97.43,276.019 97.611,275.908 97.674,275.738C97.951,274.992 97.723,274.88 98.686,273.633C99.098,273.1 99.15,273.156 104.129,267.197C109.686,260.547 126.624,239.935 128.575,237.56C136.058,228.454 136.447,226.475 143.498,226.362C144.941,226.339 202.971,226.407 255.5,226.361C257.886,226.359 298.37,226.385 299.5,226.428C303.53,226.579 302.122,228.503 301.214,232.428C299.388,240.326 291.399,271.107 290.142,275.544Z" style="fill:rgb(132,85,56);fill-opacity:1;"/>
        <path d="M517.558,590.552C518.066,590.465 518.016,590.195 519.518,590.218C525.078,590.302 529.935,590.704 532.502,590.765C532.831,590.772 533.183,590.644 533.49,590.763C533.993,590.958 534.329,591.473 534.832,591.668C534.796,591.96 534.583,592.211 534.548,592.503C534.468,593.162 534.489,593.903 534.377,605.492C534.376,605.641 534.364,606.895 534.723,607.317C535.342,608.045 538.183,607.81 546.504,607.898C548.907,607.923 549.474,608.095 549.444,610.496C549.435,611.216 549.355,617.583 549.653,619.486C549.885,620.962 550.027,621.156 551.506,621.236C552.145,621.27 552.141,621.236 559.505,621.359C562.465,621.409 562.375,620.467 562.392,617.5C562.441,608.934 562.447,608.205 561.396,607.835C560.518,607.527 552.465,607.949 551.56,607.39C550.407,606.679 550.829,604.258 550.793,595.499C550.786,593.746 550.783,593.652 550.778,593.491C550.733,592.12 550.428,592.211 550.292,591.713C550.741,591.576 551.009,591.058 551.459,590.921C551.802,590.816 552.171,591.016 552.53,591.029C563.555,591.42 563.549,591.328 564.504,591.41C565.861,591.526 567.028,592.443 567.608,592.772C567.366,593.293 566.733,593.117 566.829,595.482C566.965,598.868 567.134,601.984 567.165,602.549C567.352,627.032 567.995,627.008 568.206,651.501C568.414,675.639 569.354,675.856 567.856,678.688C566.225,681.77 567.941,685.887 569.273,696.533C569.383,697.41 572.033,714.939 572.275,716.539C572.359,717.099 572.412,717.082 573.39,723.52C573.649,725.226 575.959,734.478 565.42,739.333C563.026,740.436 562.206,740.814 532.5,740.511C525.757,740.442 521.697,740.875 517.35,737.724C508.596,731.379 511.483,722.227 511.669,720.524C512.341,714.371 513.474,708.177 513.737,705.531C514.051,702.385 516.899,683.708 516.728,681.482C516.518,678.768 514.79,679.109 514.769,673.499C514.705,656.138 515.568,656.172 515.853,622.503C515.892,617.94 515.889,617.95 516.389,601.491C516.577,596.45 516.69,596.475 516.697,591.443L517.558,590.552Z" style="fill:rgb(83,69,62);fill-opacity:1;"/>
        <path d="M317.525,276.535C317.57,276.419 318.085,275.095 318.085,275.095C318.143,274.714 317.93,274.69 318.448,272.489C321.031,261.505 321.391,261.615 323.91,250.595C325.83,242.193 328.659,230.596 329.117,228.407C330.962,219.581 331.553,218.039 333.522,217.843C334.047,217.791 386.508,217.848 390.505,217.785C394.899,217.716 423.621,217.705 426.501,217.704C430.433,217.703 431.25,217.918 431.806,220.425C433.251,226.941 433.124,226.952 434.712,233.444C436.79,241.942 436.813,241.916 438.855,250.404C443.977,271.686 444.177,271.627 444.619,273.477C444.979,274.98 444.747,274.981 444.492,276.515C432.458,276.758 344.153,276.548 335.503,276.639C334.223,276.652 321.699,276.784 319.496,276.606C318.979,276.564 319.014,276.465 318.481,276.445C317.997,276.428 318.02,276.552 317.525,276.535Z" style="fill:rgb(240,177,62);fill-opacity:1;"/>
        <path d="M545.713,575.18C549.366,576.612 549.495,575.915 560.496,576.565C574.985,577.42 574.995,576.802 589.481,577.747C595.861,578.163 600.074,577.867 609.494,578.567C621.094,579.43 621.113,578.706 639.492,579.638C657.427,580.548 670.062,579.595 675.592,582.322C686.187,587.546 683.056,599.946 682.859,607.526C682.669,614.881 682.285,615.285 682.039,623.493C681.93,627.098 681.657,627.073 679.788,668.518C679.412,676.844 677.743,707.145 677.558,710.503C676.632,727.3 677.055,729.78 671.736,733.825C670.666,734.639 670.608,734.516 669.633,734.983C669.455,734.423 668.909,734.028 668.731,733.469C668.506,732.762 669.259,732.414 669.351,732.371C670.21,731.974 670.498,732.342 672.773,729.69C672.957,729.475 673.74,728.562 674.128,726.421C674.278,725.595 674.965,717.743 675.143,713.473C675.707,699.894 677.115,679.012 677.139,677.45C677.196,673.794 677.646,666.598 677.825,661.513C677.879,659.993 677.948,660.016 678.094,658.489C678.095,658.47 678.029,656.635 678.376,649.495C678.873,639.257 679.135,639.276 679.126,637.52C679.099,632.601 680.711,611.823 680.52,607.497C680.338,603.375 677.36,597.081 677.136,596.699C672.635,589.045 667.61,588.695 661.528,588.207C659.332,588.031 554.057,584.134 542.499,583.518C526.62,582.672 524.445,582.816 520.493,582.651C513.537,582.361 433.788,579.032 433.534,579.175C433.08,579.431 432.915,580.032 432.5,580.347C432.31,580.491 431.989,580.347 431.799,580.491C432.045,572.493 431.967,572.515 432.146,564.497C432.195,562.301 432.08,559.247 434.421,554.458C436.221,550.777 439.828,547.844 440.404,547.377C446.764,542.206 451.066,543.976 486.503,543.69C488.743,543.672 501.499,543.569 514.498,543.779C519.771,543.865 523.461,544.074 528.641,550.39C528.935,550.749 537.786,563.78 541.343,569.597C541.88,570.476 542.852,571.991 542.985,572.199C544.082,573.909 544.217,573.783 545.713,575.18Z" style="fill:rgb(253,188,59);fill-opacity:1;"/>
        <path d="M318.72,478.283C317.969,477.484 317.966,477.505 317.303,476.643C315.162,473.858 315.296,473.523 315.325,440.5C315.333,431.072 315.253,430.645 316.424,430.293C316.762,430.192 323.233,430.223 356.503,430.237C359.385,430.239 360.6,429.625 360.605,432.504C360.66,462.728 360.472,463.33 362.325,465.63C364.737,468.623 366.328,468.307 379.499,468.298C397.085,468.285 397.495,468.438 399.321,467.226C403.307,464.582 402.776,459.015 402.779,458.5C402.892,437.222 402.441,431.357 403.528,430.538C404.032,430.158 406.864,430.235 410.501,430.238C443.702,430.265 446.702,430.048 447.564,430.398C448.558,430.802 448.339,433.834 448.336,435.499C448.265,472.513 448.697,472.709 447.268,475.379C443.962,481.555 439.124,481.481 436.501,481.546C431.473,481.67 355.54,481.594 348.5,481.586C323.573,481.561 322.855,482.275 318.72,478.283Z" style="fill:rgb(214,214,213);fill-opacity:1;"/>
        <path d="M442.442,385.64C443.976,385.544 443.953,385.456 445.501,385.449C446.905,385.442 452.531,385.612 452.557,385.627C452.627,385.668 452.381,385.831 453.085,386.5C453.725,387.108 453.877,386.883 454.527,387.5C454.666,394.134 454.716,417.4 454.46,418.491C453.935,420.731 451.333,420.033 442.504,420.135C436.595,420.203 409.376,420.161 406.495,420.156C405.004,420.154 403.706,420.324 403.122,418.613C402.955,418.125 402.067,411.671 396.272,407.844C391.975,405.007 387.918,405.434 379.501,405.388C372.076,405.346 368.071,405.247 363.272,411.326C360.751,414.519 360.644,419.522 359.343,420.026C358.62,420.307 329.991,420.072 313.497,420.124C312.356,420.127 309.079,420.586 308.654,418.47C308.359,417 308.443,392.411 308.523,387.501C308.919,387.096 309.501,386.905 309.897,386.5C310.189,386.201 310.206,385.669 310.548,385.428C310.894,385.185 310.945,385.557 318.495,385.333C320.595,385.271 320.575,385.476 324.497,385.367C329.472,385.228 438.439,385.014 441.509,385.465C441.822,385.511 442.129,385.595 442.442,385.64Z" style="fill:rgb(191,191,190);fill-opacity:1;"/>
        <path d="M317.637,466.514C317.695,460.25 317.647,432.765 317.663,432.744C317.979,432.352 320.335,432.665 343.499,432.482C344.696,432.473 358.249,432.366 358.46,432.633C358.515,432.705 358.27,432.855 358.278,434.43C358.409,461.132 358.304,461.163 358.853,463.417C359.558,466.309 360.609,467.673 362.793,469.04C365.842,470.949 366.09,470.531 383.498,470.607C397.223,470.668 397.299,470.643 398.434,470.27C405.901,467.82 405.026,459.26 405.037,456.5C405.066,449.099 404.971,438.562 405.238,438.307C405.862,437.709 418.742,438.216 424.502,437.966C425.22,437.935 425.214,437.995 433.487,438.076C433.704,438.079 435.834,438.1 436.136,438.649C436.642,439.567 436.146,442.274 436.421,472.501C436.477,478.737 436.605,478.761 436.332,479.225C436.191,479.465 422.559,479.239 330.5,479.368C329.992,479.369 327.985,479.405 326.663,479.221C326.415,479.186 326.164,479.013 325.924,479.085C325.405,479.241 325.036,479.954 324.5,479.871C323.957,479.787 323.786,479.027 323.356,478.687C323.13,478.509 322.818,478.481 322.567,478.342C319.727,476.765 318.349,473.654 318.362,473.614C318.51,473.157 319.139,472.967 319.29,472.511C319.344,472.345 319.271,472.355 319.035,470.345C318.814,467.498 318.943,467.464 318.665,467.091C318.43,466.776 317.872,466.829 317.637,466.514Z" style="fill:rgb(181,181,181);fill-opacity:1;"/>
        <path d="M431.799,580.491C431.989,580.347 432.31,580.491 432.5,580.347C432.915,580.032 433.08,579.431 433.534,579.175C433.788,579.032 513.537,582.361 520.493,582.651C524.445,582.816 526.62,582.672 542.499,583.518C554.057,584.134 659.332,588.031 661.528,588.207C667.61,588.695 672.635,589.045 677.136,596.699C677.36,597.081 680.338,603.375 680.52,607.497C680.711,611.823 679.099,632.601 679.126,637.52C679.135,639.276 678.873,639.257 678.376,649.495C678.029,656.635 678.095,658.47 678.094,658.489C677.948,660.016 677.879,659.993 677.825,661.513C677.646,666.598 677.196,673.794 677.139,677.45C677.115,679.012 675.707,699.894 675.143,713.473C674.965,717.743 674.278,725.595 674.128,726.421C673.74,728.562 672.957,729.475 672.773,729.69C670.498,732.342 670.21,731.974 669.351,732.371C669.259,732.414 668.506,732.762 668.731,733.469C668.909,734.028 669.455,734.423 669.633,734.983C669.232,735.079 668.879,735.33 668.478,735.426C668.359,735.455 668.365,735.439 666.949,735.593C666.548,733.058 666.465,732.534 666.758,703.505C667.159,663.764 668,625.296 668.148,618.496C668.161,610.567 669.57,604.59 663.654,599.322C659.097,595.264 652.166,595.997 647.489,595.66C636.272,594.854 631.004,595.287 618.5,594.493C609.448,593.918 609.239,594.437 592.5,593.498C586.592,593.166 579.102,593.25 570.485,592.757C568.639,592.652 568.658,592.637 568.499,592.638C568.045,592.64 568.074,592.769 567.608,592.772C567.028,592.443 565.861,591.526 564.504,591.41C563.549,591.328 563.555,591.42 552.53,591.029C552.171,591.016 551.802,590.816 551.459,590.921C551.009,591.058 550.741,591.576 550.292,591.713C549.592,591.527 549.658,591.276 548.503,591.237C547.543,591.205 537.522,590.867 536.502,590.956C535.381,591.054 534.915,591.633 534.832,591.668C534.329,591.473 533.993,590.958 533.49,590.763C533.183,590.644 532.831,590.772 532.502,590.765C529.935,590.704 525.078,590.302 519.518,590.218C518.016,590.195 518.066,590.465 517.558,590.552L516.697,591.443C516.691,591.44 516.315,590.794 515.473,590.652C513.526,590.324 498.021,590.057 496.503,590.03C485.701,589.844 485.723,589.336 464.504,589.05C462.264,589.02 462.272,588.87 436.521,588.091C436.127,588.08 433.098,587.988 431.593,587.86C431.705,587.069 432.015,587.119 431.938,585.427C431.911,584.838 431.916,584.844 431.799,580.491Z" style="fill:rgb(172,103,30);fill-opacity:1;"/>
        <path d="M560.03,680.543C560.316,684.028 560.439,683.999 560.787,687.466C563.455,714.052 564.912,720.386 563.66,724.556C561.435,731.971 550.067,730.834 549.501,730.834C528.782,730.837 527.634,731.161 524.607,729.321C522.399,727.979 522.306,728.018 521.024,725.748C520.58,724.961 519.445,722.952 520.291,714.476C520.371,713.675 521.203,705.339 521.317,704.473C522.539,695.186 523.548,683.72 524.453,676.494C526.473,660.357 521.874,653.681 524.828,649.735C527.698,645.901 531.569,646.995 535.502,647.072C549.428,647.347 555.131,646.519 557.248,647.907C560.447,650.005 560.378,653.668 560.267,655.487C559.627,665.982 558.671,667.911 560.03,680.543Z" style="fill:rgb(217,218,217);fill-opacity:1;"/>
        <path d="M473.17,276.307C473.622,276.347 473.606,276.537 476.5,276.509C489.111,276.386 492.191,276.554 539.5,276.455C549.02,276.435 613.872,276.3 658.5,276.515C664.635,276.544 664.637,276.555 666.615,276.203C668.208,276.988 668.246,276.951 669.611,278.401C673.232,282.247 673.706,283.376 673.373,291.471C672.942,291.3 672.92,291.592 672.5,291.425C671.903,291.188 672.094,290.872 671.47,290.716C671.369,290.691 658.319,290.679 649.5,290.687C635.9,290.699 510.377,290.814 479.498,290.648C476.405,290.631 476.42,290.936 476.155,290.893C475.931,290.856 475.97,290.385 475.746,290.348C475.697,289.731 475.648,289.114 475.6,288.497C475.173,283.744 474.956,282.583 473.577,278.473C473.18,277.29 473.18,276.36 473.17,276.307Z" style="fill:rgb(185,130,91);fill-opacity:1;"/>
        <path d="M97.366,276.189C98.149,276.243 98.131,276.53 105.5,276.483C125.563,276.356 283.335,276.671 289.743,276.35C289.676,276.725 289.751,277.116 289.684,277.491C289.011,281.262 287.88,281.791 287.778,289.561L287.714,290.654C280.097,290.702 265.864,290.792 192.5,290.672C164.861,290.627 93.721,290.657 93.531,290.735C93.333,290.816 93.385,290.863 91.523,292.499C91.678,286.443 90.412,282.017 96.124,277.039C96.693,276.543 96.734,276.622 97.366,276.189Z" style="fill:rgb(185,130,91);fill-opacity:1;"/>
        <path d="M418.6,745.473C418.753,745.317 420.502,743.522 420.502,743.522C420.936,743.315 420.962,743.695 426.501,743.677C486.19,743.483 508.936,743.807 522.5,743.493C539.336,743.103 570.066,743.755 595.501,743.622C598.079,743.609 661.107,743.733 663.494,743.604C663.83,743.586 664.207,743.358 664.5,743.522C664.682,743.624 664.607,743.676 665.98,745.659C665.87,745.961 665.818,746.283 665.708,746.585C664.708,749.332 661.076,753.342 656.452,754.021C655.388,754.177 655.379,754.222 456.501,754.21C427.495,754.209 427.039,754.727 423.242,751.85C419.19,748.78 419.269,747.43 418.6,745.473Z" style="fill:rgb(202,132,39);fill-opacity:1;"/>
        <path d="M108.707,398.804C108.982,398.733 109.16,398.384 110.499,398.344C110.576,398.341 263.448,398.319 281.501,398.347C288.011,398.357 287.993,398.318 294.508,398.348C294.746,398.35 297.188,398.361 297.478,398.547C298.317,399.087 298.078,401.729 298.136,405.519C298.178,408.257 298.123,408.254 298.143,408.491C298.172,408.837 298.495,409.166 298.399,409.5C298.286,409.891 297.702,410.023 297.589,410.414C296.896,410.319 296.93,410.14 295.491,410.127C295.336,410.125 295.348,410.129 293.558,410.154C276.473,410.076 119.959,410.111 110.482,410.13C109.929,409.621 110.057,409.518 109.5,409.007C108.9,408.456 108.799,408.619 108.769,408.557C108.601,408.219 108.722,407.803 108.713,407.425C108.697,406.735 108.716,406.74 108.707,398.804Z" style="fill:rgb(103,58,34);fill-opacity:1;"/>
        <path d="M653.471,398.557C653.532,398.843 654.009,398.79 653.908,403.539C653.865,405.587 653.88,405.569 653.853,407.608C653.851,407.759 653.831,409.298 653.808,409.5C653.782,409.728 653.637,409.932 653.611,410.16C644.119,410.075 483.581,410.104 471.434,410.129C466.183,409.884 466.232,410.401 465.54,410.527C465.45,409.929 465.08,410.099 464.99,409.5C464.978,409.416 465.151,409.473 465.232,408.47C465.272,407.966 465.087,399.914 465.226,399.424C465.644,397.946 466.751,398.321 484.5,398.337C638.155,398.475 638.137,398.24 651.496,398.317C652.965,398.326 652.932,398.491 653.471,398.557Z" style="fill:rgb(104,59,34);fill-opacity:1;"/>
        <path d="M464.581,484.894C472.901,484.633 647,485.005 655.499,484.696L654.5,485.806C654.337,486.032 654.047,486.145 653.884,486.372C653.85,486.419 654.001,486.441 654.003,486.498C654.023,487.627 653.74,492.961 653.71,493.523C653.28,493.761 652.849,494 652.419,494.239C646.801,494.664 594.448,494.348 576.5,494.45C568.82,494.493 568.829,494.379 480.5,494.441C479.95,494.441 463.603,494.399 463.501,494.456C463.08,494.69 462.729,495.073 462.498,495.495C462.342,495.78 462.539,496.171 462.401,496.465C462.172,496.949 457.598,501.677 456.401,502.349C456.147,502.491 455.814,502.455 455.564,502.606C455.397,502.708 455.368,502.962 455.206,503.073C454.489,503.566 453.053,504.26 451.283,505.088C451.058,505.193 451.025,505.102 448.375,506.195C448.007,506.346 446.656,506.65 446.534,506.641C446.17,506.616 445.839,506.236 445.485,506.326C445.259,506.383 445.173,507.083 443.483,507.345C438.811,508.068 438.789,507.473 425.499,507.619C421.496,507.663 421.508,507.533 417.51,507.625C416.756,507.642 351.12,507.64 350.5,507.611C344.486,507.326 320.075,508.28 317.585,507.17C317.19,506.993 316.922,506.559 316.502,506.454C316.384,506.425 315.836,506.806 314.519,506.446C313.433,506.149 313.537,505.935 312.47,505.579C312.167,505.478 311.827,505.535 311.523,505.436C311.497,505.427 307.192,503.813 305.482,502.527C305.348,502.426 303.879,501.321 303.829,501.25C303.664,501.017 303.766,500.635 303.561,500.437C303.383,500.266 303.042,500.426 302.835,500.292C302.434,500.031 302.051,499.703 301.804,499.294C301.64,499.022 301.895,498.57 301.664,498.351C301.424,498.123 300.945,498.425 300.679,498.228C300.477,498.078 300.679,497.675 300.505,497.492C300.319,497.294 299.928,497.418 299.734,497.227C299.609,497.103 300.037,496.848 298.574,495.352C298.25,495.02 297.83,494.792 297.506,494.46C298.251,494.099 298.996,493.738 299.741,493.377C300.137,493.93 300.144,493.896 300.53,494.48C301.848,496.476 306.156,500.415 308.452,501.585C318.242,506.577 320.05,505.55 373.502,505.694C437.82,505.866 438.028,505.832 443.562,504.944C460.326,502.252 463.995,488.448 464.34,487.452C464.836,486.016 464.313,485.347 464.308,485.158C464.304,485.031 464.584,485.02 464.581,484.894Z" style="fill:rgb(253,213,80);fill-opacity:1;"/>
        <path d="M108.409,410.127C109.1,410.128 109.791,410.129 110.482,410.13C119.959,410.111 276.473,410.076 293.558,410.154C292.874,415.338 292.946,415.359 293.675,420.529C289.802,420.435 238.314,420.516 233.5,420.524C223.74,420.539 116.349,420.708 111.5,420.51C109.978,420.448 109.978,420.25 108.479,420.564C104.239,421.451 103.053,420.848 103.288,422.202C103.351,422.564 103.891,422.664 103.857,424.509C103.756,430.105 104.02,466.074 103.696,466.812C103.579,467.078 103.019,467.455 102.952,467.5C102.17,468.026 102.103,467.884 101.327,468.406C101.359,468.093 101.604,467.827 101.637,467.514C101.642,467.466 101.617,457.046 101.619,456.501C101.655,449.055 101.466,421.52 101.664,420.515C102.08,418.401 105.719,418.913 107.559,418.703C109.077,418.529 108.872,418.039 108.889,416.505C108.949,410.94 108.473,410.589 108.409,410.127Z" style="fill:rgb(253,213,84);fill-opacity:1;"/>
        <path d="M471.434,410.129C483.581,410.104 644.119,410.075 653.611,410.16C653.651,410.695 653.972,411.184 654.012,411.719C654.046,412.177 653.44,412.134 653.808,417.457C653.857,418.16 653.818,418.213 654.378,418.623C654.579,418.771 654.74,419.026 654.987,419.057C655.11,419.072 655.053,418.742 656.509,418.77C660.376,418.844 660.15,419.598 660.95,420.275C660.375,420.495 660.083,421.21 659.508,421.43C658.916,421.656 658.966,421.003 656.571,420.887C654.943,420.808 654.932,420.605 654.52,420.539C654.198,420.488 625.81,420.571 619.5,420.568C560.614,420.544 560.619,420.606 555.5,420.578C532.413,420.454 480.961,420.598 474.5,420.398C473.071,420.354 472.191,419.568 472.162,419.558C472.181,419.001 472.374,413.285 472.246,412.591C472.174,412.195 471.858,411.882 471.732,411.5C471.586,411.056 471.58,410.573 471.434,410.129Z" style="fill:rgb(253,214,85);fill-opacity:1;"/>
        <path d="M317.525,276.535C318.02,276.552 317.997,276.428 318.481,276.445C319.014,276.465 318.979,276.564 319.496,276.606C321.699,276.784 334.223,276.652 335.503,276.639C344.153,276.548 432.458,276.758 444.492,276.515L445.235,276.826C445.475,277.508 445.594,277.454 445.799,278.427C446.125,279.977 446.183,279.952 446.311,281.514C447.01,290.036 446.541,290.037 446.49,290.487C443.924,290.656 443.936,290.734 436.499,290.671C436.324,290.67 322.792,290.699 322.501,290.701C322.096,290.703 317.936,290.722 317.44,290.689C317.12,290.667 316.815,290.529 316.495,290.507C316.576,284.087 316.389,284.095 316.72,277.677C316.988,277.296 317.257,276.915 317.525,276.535Z" style="fill:rgb(254,220,100);fill-opacity:1;"/>
        <path d="M106.493,484.779C113.952,484.893 291.36,484.695 296.426,484.907C296.464,484.992 296.638,484.945 296.677,485.03C297.974,487.877 297.025,488.242 299.741,493.377C298.996,493.738 298.251,494.099 297.506,494.46C296.007,494.41 296.021,494.356 294.488,494.359C272.988,494.412 273.002,494.442 251.501,494.42C240.701,494.41 132.953,494.303 116.502,494.395C111.021,494.425 111.026,494.301 110.55,494.32C110.148,494.336 109.714,494.723 109.361,494.529C109.061,494.364 109.414,493.696 109.114,493.531C109.046,490.532 109.124,490.547 109.021,487.541C109.01,487.215 109.187,486.81 108.972,486.564C108.885,486.465 108.75,486.705 107.5,485.804C106.912,485.381 107.089,485.208 106.493,484.779Z" style="fill:rgb(253,213,81);fill-opacity:1;"/>
        <path d="M296.426,484.907C297.072,484.882 301.388,484.717 304.504,484.709C307.497,484.702 307.08,486.189 309.28,488.686C315.752,496.037 324.364,495.823 330.498,495.855C330.874,495.857 413.362,495.847 413.507,495.846C441.938,495.681 443.966,497.243 453.13,490.07C454.851,488.723 456.363,485.899 457.247,485.189C458.272,484.366 463.996,484.845 464.581,484.894C464.584,485.02 464.304,485.031 464.308,485.158C464.313,485.347 464.836,486.016 464.34,487.452C463.995,488.448 460.326,502.252 443.562,504.944C438.028,505.832 437.82,505.866 373.502,505.694C320.05,505.55 318.242,506.577 308.452,501.585C306.156,500.415 301.848,496.476 300.53,494.48C300.144,493.896 300.137,493.93 299.741,493.377C297.025,488.242 297.974,487.877 296.677,485.03C296.638,484.945 296.464,484.992 296.426,484.907Z" style="fill:rgb(175,110,33);fill-opacity:1;"/>
        <path d="M442.442,385.64C442.129,385.595 441.822,385.511 441.509,385.465C438.439,385.014 329.472,385.228 324.497,385.367C320.575,385.476 320.595,385.271 318.495,385.333C310.945,385.557 310.894,385.185 310.548,385.428C310.206,385.669 310.189,386.201 309.897,386.5C309.501,386.905 308.919,387.096 308.523,387.501C308.787,383.108 308.742,380.315 312.393,377.359C315.688,374.69 319.256,375.115 330.5,375.104C339.622,375.096 441.763,375.002 444.526,375.137C447.111,375.263 452.617,377.284 453.968,382.394C454.743,385.325 454.506,386.915 454.527,387.5C453.877,386.883 453.725,387.108 453.085,386.5C452.381,385.831 452.627,385.668 452.557,385.627C452.531,385.612 446.905,385.442 445.501,385.449C443.953,385.456 443.976,385.544 442.442,385.64Z" style="fill:rgb(241,243,241);fill-opacity:1;"/>
        <path d="M673.024,483.523C673.69,484.964 673.632,484.992 673.741,485.076C673.852,485.161 673.906,485.001 675.341,485.797C677.167,486.811 677.365,486.687 678.244,488.605C678.573,489.325 678.717,489.64 678.65,498.502C678.504,517.514 678.735,517.498 678.553,536.5C678.491,542.917 677.711,543.477 674.652,544.921C672.659,543.911 672.689,543.87 672.5,543.831C671.847,543.696 671.16,543.877 670.5,543.779C670.143,543.726 669.843,543.462 669.49,543.385C669.306,543.345 665.813,543.332 665.493,543.331C661.862,543.319 661.825,543.655 661.57,543.472C661.221,543.222 661.58,530.182 661.556,519.5C661.508,498.07 661.741,496.786 661.062,495.733C660.411,494.721 655.565,494.596 654.798,494.214C654.413,494.023 654.095,493.714 653.71,493.523C653.74,492.961 654.023,487.627 654.003,486.498C654.001,486.441 653.85,486.419 653.884,486.372C654.047,486.145 654.337,486.032 654.5,485.806L655.499,484.696C660.51,484.746 660.494,484.723 665.497,484.768C668.998,484.801 668.987,484.851 670.483,484.868C672.832,484.894 672.518,483.979 673.024,483.523Z" style="fill:rgb(212,139,43);fill-opacity:1;"/>
        <path d="M431.593,587.86C433.098,587.988 436.127,588.08 436.521,588.091C462.272,588.87 462.264,589.02 464.504,589.05C485.723,589.336 485.701,589.844 496.503,590.03C498.021,590.057 513.526,590.324 515.473,590.652C516.315,590.794 516.691,591.44 516.697,591.443C516.69,596.475 516.577,596.45 516.389,601.491C513.582,600.384 513.534,600.588 510.5,600.464C505.062,600.241 461.41,598.453 442.51,598.093C426.079,597.781 424.687,598.029 421.201,601.138C418.98,603.12 417.897,604.972 415.365,607.361C414.122,608.535 414.717,608.827 414.237,610.467C413.819,611.897 412.654,612.478 412.647,612.486C412.345,605.904 411.369,599.243 415.278,594.333C420.51,587.761 426.2,588.041 431.593,587.86Z" style="fill:rgb(254,243,160);fill-opacity:1;"/>
        <path d="M89.329,410.241C90.849,410.101 91.745,410.018 108.409,410.127C108.473,410.589 108.949,410.94 108.889,416.505C108.872,418.039 109.077,418.529 107.559,418.703C105.719,418.913 102.08,418.401 101.664,420.515C101.466,421.52 101.655,449.055 101.619,456.501C101.617,457.046 101.642,467.466 101.637,467.514C101.604,467.827 101.359,468.093 101.327,468.406C100.54,468.393 92.382,468.255 91.487,468.454C90.992,468.565 90.565,469.01 90.5,469.077C89.802,469.803 90.035,469.965 89.324,470.704C85.284,468.813 84.868,468.228 84.708,465.487C84.603,463.688 84.672,416.984 84.676,416.501C84.714,411.828 86.807,411.589 89.329,410.241Z" style="fill:rgb(213,140,44);fill-opacity:1;"/>
        <path d="M567.608,592.772C568.074,592.769 568.045,592.64 568.499,592.638C568.658,592.637 568.639,592.652 570.485,592.757C579.102,593.25 586.592,593.166 592.5,593.498C609.239,594.437 609.448,593.918 618.5,594.493C631.004,595.287 636.272,594.854 647.489,595.66C652.166,595.997 659.097,595.264 663.654,599.322C669.57,604.59 668.161,610.567 668.148,618.496C666.752,617.371 666.748,617.392 666.64,617.281C666.512,617.147 666.529,616.911 666.396,616.782C666.187,616.578 665.879,616.504 665.651,616.32C661.73,613.159 662.837,605.833 653.544,605.106C649.975,604.827 609.926,603.884 609.497,603.879C601.295,603.781 591.684,603.263 580.506,603.119C574.989,603.049 575.01,602.964 569.486,602.775C568.319,602.735 568.342,602.664 567.165,602.549C567.134,601.984 566.965,598.868 566.829,595.482C566.733,593.117 567.366,593.293 567.608,592.772Z" style="fill:rgb(254,243,158);fill-opacity:1;"/>
        <path d="M599.488,565.859C597.167,565.811 591.397,565.691 570.491,564.673C557.633,564.048 557.631,564.205 556.515,564.124C553.41,563.897 553.05,561.63 552.086,559.757C551.276,558.183 551.011,558.356 550.996,558.205C550.977,557.999 551.482,556.849 551.595,556.792C551.662,556.757 610.61,556.761 614.499,556.77C652.992,556.86 653.425,556.41 653.761,557.318C653.988,557.93 653.97,557.947 653.854,565.475C653.851,565.63 653.83,566.984 653.399,567.361C652.962,567.744 651.642,567.693 651.487,567.687C639.479,567.227 639.493,567.254 627.485,566.886C613.467,566.456 613.499,566.223 599.488,565.859Z" style="fill:rgb(143,93,59);fill-opacity:1;"/>
        <path d="M371.458,429.5C371.46,416.437 371.15,415.628 373.58,414.825C373.856,414.734 388.76,414.418 390.293,414.998C391.628,415.502 391.818,417.233 391.844,417.465C391.967,418.581 391.715,418.574 392.01,431.5C392.038,432.699 391.989,432.686 392.032,446.498C392.033,446.729 392.096,450.695 391.874,451.573C391.358,453.62 389.789,453.27 382.499,453.274C373.304,453.279 371.9,453.734 371.555,450.495C371.376,448.818 371.452,432.736 371.458,429.5Z" style="fill:rgb(235,237,236);fill-opacity:1;"/>
        <path d="M534.832,591.668C534.915,591.633 535.381,591.054 536.502,590.956C537.522,590.867 547.543,591.205 548.503,591.237C549.658,591.276 549.592,591.527 550.292,591.713C550.428,592.211 550.733,592.12 550.778,593.491C550.783,593.652 550.786,593.746 550.793,595.499C550.829,604.258 550.407,606.679 551.56,607.39C552.465,607.949 560.518,607.527 561.396,607.835C562.447,608.205 562.441,608.934 562.392,617.5C562.375,620.467 562.465,621.409 559.505,621.359C552.141,621.236 552.145,621.27 551.506,621.236C550.027,621.156 549.885,620.962 549.653,619.486C549.355,617.583 549.435,611.216 549.444,610.496C549.474,608.095 548.907,607.923 546.504,607.898C538.183,607.81 535.342,608.045 534.723,607.317C534.364,606.895 534.376,605.641 534.377,605.492C534.489,593.903 534.468,593.162 534.548,592.503C534.583,592.211 534.796,591.96 534.832,591.668Z" style="fill:rgb(222,223,221);fill-opacity:1;"/>
        <path d="M550.161,672.503C550.121,674.946 550.873,678.809 545.49,679.075C537.17,679.486 536.253,678.794 535.622,678.317C533.208,676.494 533.763,675.536 533.731,662.498C533.713,655.288 533.432,653.041 535.37,652.204C535.754,652.038 535.747,651.741 545.497,651.88C550.517,651.952 550.168,653.851 550.18,662.503C550.187,667.505 550.151,667.493 550.161,672.503Z" style="fill:rgb(75,77,74);fill-opacity:1;"/>
        <path d="M293.558,410.154C295.348,410.129 295.336,410.125 295.491,410.127C296.93,410.14 296.896,410.319 297.589,410.414C297.769,411.13 298.091,411.042 298.108,412.476C298.2,420.342 298.887,423.576 303.745,428.264C303.401,428.801 302.539,428.849 302.195,429.386C301.984,429.715 302.272,430.164 302.277,430.555C302.287,431.2 302.248,431.844 302.24,432.49C302.193,436.255 302.21,445.372 302.212,446.492C302.252,468.132 302.355,468.138 302.289,468.211C302.098,468.424 296.756,468.275 296.479,468.3C296.112,468.333 295.78,468.555 295.413,468.596C295.083,468.632 294.662,468.754 294.42,468.526C294.271,468.386 294.254,465.742 294.252,465.5C294.248,464.78 294.263,464.802 294.232,456.5C294.108,423.703 294.09,423.694 293.675,420.529C292.946,415.359 292.874,415.338 293.558,410.154Z" style="fill:rgb(192,125,41);fill-opacity:1;"/>
        <path d="M374.501,428.127C386.93,428.188 389.418,428.018 389.605,428.23C389.691,428.328 389.673,428.351 389.721,439.492C389.773,451.47 389.591,451.468 389.582,451.486C389.404,451.814 388.867,451.846 388.5,451.777C388.07,451.696 387.819,451.173 387.393,451.074C387.167,451.021 378.387,451.042 377.604,451.044C377.326,451.045 374.613,451.051 374.141,450.837C373.814,450.688 373.737,450.558 373.717,436.473C373.713,433.685 373.768,431.038 373.736,430.35C373.724,430.089 373.577,429.817 373.662,429.569C373.843,429.043 374.32,428.653 374.501,428.127Z" style="fill:rgb(181,181,180);fill-opacity:1;"/>
        <path d="M531.514,723.124C530.988,722.927 529.241,723.201 528.891,720.486C528.874,720.355 528.882,720.355 528.872,714.502C528.862,708.43 530.875,708.826 535.495,708.851C550.617,708.932 552.105,708.478 553.779,710.239C554.35,710.838 555.489,712.036 555.109,720.502C555.029,722.278 555.18,722.664 553.468,723.171C553.103,723.279 536.375,723.23 531.514,723.124Z" style="fill:rgb(37,38,35);fill-opacity:1;"/>
        <path d="M307.195,257.427C307.502,258.118 307.809,258.809 308.116,259.5C308.178,259.839 308.795,259.943 308.481,261.498C308.197,262.912 307.252,263.456 307.24,263.5C307.17,263.741 307.839,263.84 307.456,265.489C307.141,266.845 306.324,267.402 306.31,267.453C306.241,267.714 306.84,267.809 306.442,269.487C306.117,270.861 305.155,271.477 305.149,271.5C305.055,271.863 305.585,272.142 305.639,272.514C305.643,272.543 305.239,274.376 305.223,274.4C304.931,274.837 304.257,275.001 304.09,275.5C303.961,275.886 304.159,276.395 304.467,276.662C304.603,276.779 315.338,276.608 315.513,276.687C315.986,276.904 316.247,277.461 316.72,277.677C316.389,284.095 316.576,284.087 316.495,290.507C313.599,290.637 313.623,290.699 310.497,290.658C309.939,290.651 304.034,290.575 303.522,290.646C303.172,290.694 302.853,290.929 302.5,290.923C302.001,290.916 301.535,290.615 301.035,290.608C300.973,287.033 301.036,287.054 301.13,283.493C301.207,280.54 301.266,280.553 301.942,277.679C302.696,275.072 306.782,259.049 307.195,257.427Z" style="fill:rgb(246,180,59);fill-opacity:1;"/>
        <path d="M537.464,628.51C537.059,628.791 536.937,629.377 536.533,629.658C536.241,629.861 534.667,629.845 534.505,629.844C523.422,629.737 523.238,630.043 522.652,629.379C522.286,628.964 522.287,627.643 522.287,627.489C522.288,626.53 522.295,617.63 522.356,615.499C522.422,613.197 523.194,613.379 525.501,613.455C535.523,613.788 535.723,613.352 536.718,614.26C537.428,614.907 537.348,615.808 537.361,616.5C537.563,626.628 537.243,626.622 537.283,627.501C537.299,627.842 537.448,628.169 537.464,628.51Z" style="fill:rgb(221,222,220);fill-opacity:1;"/>
        <path d="M466.968,424.486C466.957,425.495 466.945,426.504 466.933,427.513C466.796,438.917 467.142,438.909 466.923,446.504C466.887,447.783 467.016,447.761 467.009,462.498C467.006,467.083 467.028,467.081 467.008,467.479C466.988,467.863 467.155,468.418 466.827,468.617C466.669,468.713 466.671,468.373 464.533,468.36C461.903,468.343 461.862,468.432 461.684,468.248C461.542,468.101 461.746,457.25 461.653,445.495C461.643,444.297 461.535,430.549 461.542,430.514C461.78,429.398 462.129,429.617 462.403,429.359C462.544,429.228 462.534,428.985 462.668,428.847C463.035,428.466 463.564,428.78 465.382,425.023C465.449,424.883 465.395,424.634 465.542,424.584C466.235,424.349 466.275,424.72 466.968,424.486Z" style="fill:rgb(179,115,37);fill-opacity:1;"/>
        <path d="M108.707,398.804C108.716,406.74 108.697,406.735 108.713,407.425C108.722,407.803 108.601,408.219 108.769,408.557C108.799,408.619 108.9,408.456 109.5,409.007C110.057,409.518 109.929,409.621 110.482,410.13C109.791,410.129 109.1,410.128 108.409,410.127C91.745,410.018 90.849,410.101 89.329,410.241C89.75,409.05 90.106,409.102 90.022,405.497C89.975,403.485 89.946,403.498 89.939,401.497C89.945,401.337 90.014,399.508 90.014,399.508C90.384,399.141 91.017,399.223 91.5,399.027C91.979,398.833 91.947,398.384 94.472,398.371C95.436,398.367 106.04,398.314 106.518,398.38C107.254,398.482 107.971,398.702 108.707,398.804Z" style="fill:rgb(61,35,22);fill-opacity:0.99;"/>
        <path d="M552.444,721.479C552.103,721.434 551.824,721.146 551.483,721.102C551.096,721.051 533.526,721.14 532.406,720.965C530.756,720.707 531.087,720.153 531.095,718.491C531.116,713.903 531.063,713.909 531.081,713.511C531.22,710.425 532.429,711.029 535.51,711.03C536.63,711.031 544.754,711.034 549.511,711.197C551.666,711.27 552.525,711.473 552.804,713.446C552.927,714.316 552.929,720.49 552.866,720.759C552.803,721.03 552.507,721.208 552.444,721.479Z" style="fill:rgb(85,87,83);fill-opacity:1;"/>
        <path d="M538.507,629.466C544.606,630.082 553.428,629.155 554.633,630.375C555.084,630.831 555.182,630.911 555.112,639.505C555.103,640.583 555.306,640.735 554.434,641.379C553.971,641.722 550.525,641.517 550.5,641.516C538.308,641.24 537.756,641.849 537.326,640.585C537.063,639.809 537.131,630.683 537.276,630.467C537.572,630.028 538.211,629.904 538.507,629.466Z" style="fill:rgb(223,224,223);fill-opacity:1;"/>
        <path d="M290.142,275.544C290.668,275.685 290.982,276.299 291.508,276.44C291.543,276.449 300.486,276.416 300.504,276.425C301.07,276.714 301.375,277.39 301.942,277.679C301.266,280.553 301.207,280.54 301.13,283.493C301.036,287.054 300.973,287.033 301.035,290.608L301.012,291.563C300.888,291.489 299.459,290.633 299.459,290.633C299.156,290.541 299.148,290.662 295.493,290.659C289.979,290.655 289.965,290.842 289.509,290.695C289.402,290.661 289.606,290.437 288.5,289.713C288.168,289.496 288.098,289.771 287.778,289.561C287.88,281.791 289.011,281.262 289.684,277.491C289.751,277.116 289.676,276.725 289.743,276.35L290.142,275.544Z" style="fill:rgb(107,67,44);fill-opacity:1;"/>
        <path d="M472.604,275.509L473.17,276.307C473.18,276.36 473.18,277.29 473.577,278.473C474.956,282.583 475.173,283.744 475.6,288.497C475.062,289.06 474.988,288.944 474.457,289.5C473.513,290.488 473.641,290.592 473.54,290.652C473.245,290.828 472.853,290.663 472.509,290.663C471.864,290.663 464.499,290.668 464.45,290.62C464.317,290.489 464.96,286.166 464.149,282.562C463.317,278.865 463.667,278.765 463.447,278.522C463.447,278.522 461.204,277.741 461.009,277.673C461.578,277.365 461.893,276.693 462.462,276.385C462.54,276.343 469.783,276.397 470.511,276.391C471.994,276.377 472.473,275.564 472.604,275.509Z" style="fill:rgb(108,68,45);fill-opacity:1;"/>
        <path d="M699.039,597.494C698.955,599.041 698.994,600.171 698.635,604.51C698.14,610.499 698.265,610.493 698.016,616.487C697.762,622.608 697.175,622.562 697.065,630.495C696.637,629.83 696.209,629.165 695.781,628.5L695.433,627.5L695.623,626.5L695.707,625.5C695.951,621.497 695.898,621.515 695.863,617.523C695.837,614.486 695.8,614.491 696.387,611.5L696.653,610.5L696.671,609.5L696.723,608.5L696.783,607.5L696.839,606.5L696.886,605.5L696.882,604.5L696.888,603.5C696.936,598.838 696.814,598.785 697.095,598.5C697.218,598.375 697.238,598.426 699.039,597.494Z" style="fill:rgb(8,9,12);fill-opacity:0.99;"/>
        <path d="M470.903,422.852C470.358,423.856 470.405,423.857 469.826,424.837C469.105,426.056 469.109,426.093 466.933,427.513C466.945,426.504 466.957,425.495 466.968,424.486C467.56,422.692 467.575,422.709 467.607,422.549C467.642,422.377 467.975,420.74 468.259,420.454C468.334,420.377 469.831,418.862 469.603,420.564C469.551,420.952 469.065,421.346 469.258,421.686C469.59,422.271 470.571,422.268 470.903,422.852Z" style="fill:rgb(214,148,51);fill-opacity:1;"/>
        <path d="M409.448,689.499C409.32,689.803 409.573,690.184 409.445,690.488C409.366,690.676 409.06,690.645 408.908,690.781C408.715,690.954 408.655,691.262 408.432,691.395C408.168,691.552 407.792,691.434 407.534,691.6C407.377,691.701 407.453,691.992 407.312,692.114C405.808,693.412 405.511,691.652 405.485,691.5C405.367,690.8 406.362,689.946 406.491,689.499C406.584,689.176 406.52,688.827 406.546,688.492C406.571,688.171 406.443,687.782 406.644,687.53C406.76,687.384 409.187,687.292 409.264,687.484C409.296,687.563 409.087,687.537 409.179,688.539C409.225,689.05 409.402,688.992 409.448,689.499Z" style="fill:rgb(68,42,26);fill-opacity:1;"/>
        <path d="M317.637,466.514C317.872,466.829 318.43,466.776 318.665,467.091C318.943,467.464 318.814,467.498 319.035,470.345C318.794,470.375 318.686,470.743 318.445,470.773C317.518,470.887 317.726,470.448 317.674,469.498C317.661,469.26 317.671,469.277 317.637,466.514Z" style="fill:rgb(195,195,193);fill-opacity:1;"/>
    </g>
</svg>
